<svg xmlns:dc="http://purl.org/dc/elements/1.1/" xmlns:cc="http://creativecommons.org/ns#" xmlns:rdf="http://www.w3.org/1999/02/22-rdf-syntax-ns#" xmlns:svg="http://www.w3.org/2000/svg" xmlns="http://www.w3.org/2000/svg" viewBox="100.21979827508476 89.25904538574217 767.6912735150117 407.74043437500006" height="407.74043437500006" width="767.6912735150117" xml:space="preserve" id="svg2" version="1.1"><metadata id="metadata8"><rdf:rdf><cc:work rdf:about=""><dc:format>image/svg+xml</dc:format><dc:type rdf:resource="http://purl.org/dc/dcmitype/StillImage"></dc:type></cc:work></rdf:rdf></metadata><defs id="defs6"></defs><g transform="matrix(1.3333333,0,0,-1.3333333,0,562.66667)" id="g10"><g transform="scale(0.1)" id="g12"><path id="path14" style="fill:#00427a;fill-opacity:1;fill-rule:nonzero;stroke:none" d="M 5.56641,5.32422 H 7127.19 V 4213.57 H 5.56641 V 5.32422"></path><path id="path16" style="fill:#ffffff;fill-opacity:1;fill-rule:nonzero;stroke:none" d="m 5296.93,1829.33 c -21.27,0 -38.52,16.03 -38.52,35.84 0,0.53 0.08,0.97 0.08,1.41 v 605.86 2.68 l 0.18,2.47 c 1.97,18.05 18.31,32.1 38.17,32.1 19.85,0 36.18,-14.05 38.21,-32.1 l 0.18,-2.47 c 0.03,-0.44 0.03,-2.24 0,-2.68 v -605.86 c 0.03,-0.44 0.03,-0.88 0.03,-1.41 0,-19.81 -17.26,-35.84 -38.33,-35.84 z m 71.76,792.14 h -143.84 c -121.58,0 -128.79,-98.17 -128.79,-161.54 v -580.79 c 0,-63.3 7.21,-161.59 128.79,-161.59 h 143.84 c 121.49,0 129.05,98.29 129.05,161.59 v 580.79 c 0,63.37 -7.56,161.54 -129.05,161.54"></path><path id="path18" style="fill:#ffffff;fill-opacity:1;fill-rule:nonzero;stroke:none" d="m 2662.7,2621.47 h 331.12 V 2509.21 H 2836.15 V 1717.55 H 2662.7 v 903.92"></path><path id="path20" style="fill:#ffffff;fill-opacity:1;fill-rule:nonzero;stroke:none" d="m 3019.43,1717.55 h 169.85 l 16.16,240.3 h 81.96 l 16.12,-240.3 h 169.8 l -90.56,903.92 h -272.71 z m 192.12,339.61 30,452.17 h 9.71 l 29.82,-452.17 h -69.53"></path><path id="path22" style="fill:#ffffff;fill-opacity:1;fill-rule:nonzero;stroke:none" d="m 3721.85,2034.11 v -170.12 c 0,-23.32 17.3,-29.91 27.23,-29.91 16.17,0 27.33,14.28 27.33,29.91 v 210.09 c 0,28.46 -4.97,59.37 -69.54,59.37 h -70.58 v 99.41 h 72.96 c 49.63,0 67.16,11.76 67.16,67.1 v 179.69 c 0,15.55 -11.16,29.56 -27.33,29.56 -9.93,0 -27.23,-6.37 -27.23,-29.56 v -147.44 h -173.67 v 127.72 c 0,63.38 7.46,161.54 128.91,161.54 h 144.06 c 121.55,0 128.88,-98.16 128.88,-161.54 v -144.59 c 0,-98.08 -65.72,-125.09 -117.81,-122.55 v -9.09 c 116.54,2.76 117.81,-90.25 117.81,-122.71 v -181.84 c 0,-63.29 -7.33,-161.59 -128.88,-161.59 h -144.06 c -121.45,0 -128.91,98.3 -128.91,161.59 v 154.96 h 173.67"></path><path id="path24" style="fill:#ffffff;fill-opacity:1;fill-rule:nonzero;stroke:none" d="m 4064.22,2621.47 h 401.8 v -903.92 h -161.94 v 791.66 h -77.88 v -791.66 h -161.98 v 903.92"></path><path id="path26" style="fill:#ffffff;fill-opacity:1;fill-rule:nonzero;stroke:none" d="m 4591.84,1717.55 h 173.63 v 307.37 h 99.13 c 121.54,0 140.86,98.21 140.86,161.54 v 273.47 c 0,63.37 -19.32,161.54 -140.86,161.54 h -272.76 z m 173.63,406.94 v 384.76 h 45.51 c 18.75,0 32.32,-16.74 32.32,-45.02 v -294.77 c 0,-28.32 -13.57,-44.97 -32.32,-44.97 h -45.51"></path><path id="path28" style="fill:#ffffff;fill-opacity:1;fill-rule:nonzero;stroke:none" d="m 6051.71,2621.47 h 225.76 v -903.92 h -173.72 v 566.86 h -6.15 l -89.33,-566.86 h -138.8 l -89.29,566.86 h -6.28 v -566.86 h -173.58 v 903.92 h 225.54 l 112.75,-635.24 113.1,635.24"></path><path id="path30" style="fill:#ffffff;fill-opacity:1;fill-rule:nonzero;stroke:none" d="m 2292.35,2529.6 c -2.1,-91.62 -13.08,-188.39 -26.92,-246.14 4.97,99.61 -6.93,240.08 -30.04,349.84 -22.8,109.8 -87.68,292.79 -139.41,377.74 -47.78,-80.78 -106.77,-239.25 -137.56,-376.69 -30.97,-137.69 -31.94,-304.12 -31.94,-354.06 -8.16,42.26 -28.72,192.16 -22.92,342.99 4.83,124.48 33.99,252.21 49.89,311.06 60.75,196.42 129.57,321.78 142.53,341.68 12.91,-19.9 99.57,-174.34 144.55,-336.76 44.71,-162.6 53.71,-317.95 51.82,-409.66 z m -195.41,-701.39 c -26.88,50.77 -68.78,147.48 -72.77,296.69 -1.01,144.41 56.79,268.32 73.65,294.06 15.07,-25.74 64.87,-133.61 70.89,-281.06 3.92,-144.29 -43.83,-257.88 -71.77,-309.69 z m 211.27,1108.99 c -54.73,240.25 -192.3,435.45 -211.27,467.42 -29.9,-44.89 -139.67,-217.2 -195.32,-408.65 -60.83,-213.29 -69.75,-402.6 -48.8,-588.96 20.82,-186.31 99.66,-377.64 99.66,-377.64 41.86,-100.5 104.58,-208.02 145.34,-260.86 59.91,77.66 197.48,309.62 240.3,612.58 23.89,168.36 24.86,315.98 -29.91,556.11"></path><path id="path32" style="fill:#ffffff;fill-opacity:1;fill-rule:nonzero;stroke:none" d="m 1760.48,1717.72 v -284.18 c 0.26,0.44 0.66,0.88 1.06,1.41 99.3,98.78 260.46,98.78 359.8,0 99.41,-99.01 99.41,-259.72 0,-358.5 -0.47,-0.44 -0.87,-0.79 -1.3,-1.22 0,-0.1 0,-0.1 -0.06,-0.1 -0.39,-0.47 -1,-0.87 -1.44,-1.36 -99.06,-97.895 -228.52,-147.086 -358.06,-147.086 -130.14,0 -260.19,49.629 -359.55,148.266 -174.72,174.21 -195.54,443.8 -62.28,640.48 18.05,26.71 38.69,51.88 62.28,75.46 99.36,98.83 229.41,148.06 359.55,148.06 v 677.73 c -499.87,0 -905.144,-403.69 -905.144,-901.25 0,-497.77 405.274,-901.325 905.144,-901.325 260.69,0 495.35,109.848 660.46,285.275 v 618.34 h -660.46"></path><path id="path34" style="fill:#ffffff;fill-opacity:1;fill-rule:nonzero;stroke:none" d="m 6115.41,1027.49 c 0,-85.955 -39.18,-101.158 -138.77,-101.158 h -91.66 v 392.418 h 91.66 v -151.41 h 15.21 c 90.09,0 123.56,-20.95 123.56,-99.48 z m -764.78,217.12 H 5281.1 V 926.035 h -87.05 v 318.575 h -74.42 v 74.44 h 231 z m -704.87,-178.33 c 0,-79.675 -40.75,-101.112 -130.88,-101.112 v -38.836 h -89.09 v 38.836 c -90.52,0 -131.41,21.437 -131.41,101.112 v 122.58 c 0,80.07 39.31,100.37 131.41,100.37 v 29.52 h 89.09 v -29.52 c 91.61,0 130.88,-20.3 130.88,-100.37 z m -830.75,178.33 h -125.35 v -77.19 h 112.22 v -74.49 h -112.22 v -92.4 h 125.35 V 926.035 H 3595 v 393.015 h 220.01 z m -759.9,-318.278 h -91.58 v 171.738 h -47.16 V 926.332 h -91.68 v 392.418 h 91.68 v -151.41 h 47.16 v 151.41 h 91.58 z M 6277.44,1416.51 H 2662.66 V 814.031 H 6277.44 Z M 4528.97,1220.26 h -14.09 v -182.8 h 14.09 c 20.42,0 27.8,5.71 27.8,28.82 v 126.23 c 0,23.06 -7.38,27.75 -27.8,27.75 z m 1467.97,-122.19 h -20.3 V 995.52 h 20.3 c 20.61,0 26.85,5.32 26.85,27.71 v 47.22 c 0,22.45 -6.24,27.62 -26.85,27.62 z m -1613.49,93.38 v -125.78 c 0,-22.94 7.3,-28.21 27.68,-28.21 h 14.66 v 182.8 h -14.66 c -20.38,0 -27.68,-5.84 -27.68,-28.81"></path></g></g></svg>